<svg width="100" height="100" viewBox="0 0 100 100" fill="none" xmlns="http://www.w3.org/2000/svg">
<rect x="0.5" y="0.5" width="99" height="99" fill="white" stroke="#F2F2F2" stroke-linecap="round"/>
<g filter="url(#filter0_d)">
<path d="M24.7148 46.293H12.6914V67H5.90625V15.8125H22.8516C28.6172 15.8125 33.0469 17.125 36.1406 19.75C39.2578 22.375 40.8164 26.1953 40.8164 31.2109C40.8164 34.3984 39.9492 37.1758 38.2148 39.543C36.5039 41.9102 34.1133 43.6797 31.043 44.8516L43.0664 66.5781V67H35.8242L24.7148 46.293ZM12.6914 40.7734H23.0625C26.4141 40.7734 29.0742 39.9062 31.043 38.1719C33.0352 36.4375 34.0312 34.1172 34.0312 31.2109C34.0312 28.0469 33.082 25.6211 31.1836 23.9336C29.3086 22.2461 26.5898 21.3906 23.0273 21.3672H12.6914V40.7734Z" transform="translate(59.4648 7) scale(-1 1)" fill="#770202"/>
</g>
<g filter="url(#filter1_d)">
<path d="M24.7148 46.293H12.6914V67H5.90625V15.8125H22.8516C28.6172 15.8125 33.0469 17.125 36.1406 19.75C39.2578 22.375 40.8164 26.1953 40.8164 31.2109C40.8164 34.3984 39.9492 37.1758 38.2148 39.543C36.5039 41.9102 34.1133 43.6797 31.043 44.8516L43.0664 66.5781V67H35.8242L24.7148 46.293ZM12.6914 40.7734H23.0625C26.4141 40.7734 29.0742 39.9062 31.043 38.1719C33.0352 36.4375 34.0312 34.1172 34.0312 31.2109C34.0312 28.0469 33.082 25.6211 31.1836 23.9336C29.3086 22.2461 26.5898 21.3906 23.0273 21.3672H12.6914V40.7734Z" transform="translate(41.5352 7)" fill="#770202"/>
</g>
<defs>
<filter id="filter0_d" x="12.3984" y="22.8125" width="45.1602" height="59.1875" filterUnits="userSpaceOnUse" color-interpolation-filters="sRGB">
<feFlood flood-opacity="0" result="BackgroundImageFix"/>
<feColorMatrix in="SourceAlpha" type="matrix" values="0 0 0 0 0 0 0 0 0 0 0 0 0 0 0 0 0 0 255 0"/>
<feOffset dy="4"/>
<feGaussianBlur stdDeviation="2"/>
<feColorMatrix type="matrix" values="0 0 0 0 0 0 0 0 0 0 0 0 0 0 0 0 0 0 0.25 0"/>
<feBlend mode="normal" in2="BackgroundImageFix" result="effect1_dropShadow"/>
<feBlend mode="normal" in="SourceGraphic" in2="effect1_dropShadow" result="shape"/>
</filter>
<filter id="filter1_d" x="43.4415" y="22.8125" width="45.1602" height="59.1875" filterUnits="userSpaceOnUse" color-interpolation-filters="sRGB">
<feFlood flood-opacity="0" result="BackgroundImageFix"/>
<feColorMatrix in="SourceAlpha" type="matrix" values="0 0 0 0 0 0 0 0 0 0 0 0 0 0 0 0 0 0 255 0"/>
<feOffset dy="4"/>
<feGaussianBlur stdDeviation="2"/>
<feColorMatrix type="matrix" values="0 0 0 0 0 0 0 0 0 0 0 0 0 0 0 0 0 0 0.25 0"/>
<feBlend mode="normal" in2="BackgroundImageFix" result="effect1_dropShadow"/>
<feBlend mode="normal" in="SourceGraphic" in2="effect1_dropShadow" result="shape"/>
</filter>
</defs>
</svg>
